<?xml version="1.0" encoding="UTF-8" standalone="no"?>
<!-- Created with Inkscape (http://www.inkscape.org/) -->

<svg
   xmlns:dc="http://purl.org/dc/elements/1.1/"
   xmlns:cc="http://creativecommons.org/ns#"
   xmlns:rdf="http://www.w3.org/1999/02/22-rdf-syntax-ns#"
   xmlns:svg="http://www.w3.org/2000/svg"
   xmlns="http://www.w3.org/2000/svg"
   xmlns:sodipodi="http://sodipodi.sourceforge.net/DTD/sodipodi-0.dtd"
   xmlns:inkscape="http://www.inkscape.org/namespaces/inkscape"
   width="48"
   height="48"
   id="svg2"
   version="1.1"
   inkscape:version="0.48.4 r9939"
   sodipodi:docname="back.svg"
   inkscape:export-xdpi="90"
   inkscape:export-ydpi="90">
  <defs
     id="defs4" />
  <sodipodi:namedview
     id="base"
     pagecolor="#ffffff"
     bordercolor="#666666"
     borderopacity="1.0"
     inkscape:pageopacity="0"
     inkscape:pageshadow="2"
     inkscape:zoom="12.645833"
     inkscape:cx="24"
     inkscape:cy="24"
     inkscape:document-units="px"
     inkscape:current-layer="layer1"
     showgrid="false"
     inkscape:window-width="1301"
     inkscape:window-height="744"
     inkscape:window-x="65"
     inkscape:window-y="24"
     inkscape:window-maximized="1" />
  <metadata
     id="metadata7">
    <rdf:RDF>
      <cc:Work
         rdf:about="">
        <dc:format>image/svg+xml</dc:format>
        <dc:type
           rdf:resource="http://purl.org/dc/dcmitype/StillImage" />
        <dc:title />
      </cc:Work>
    </rdf:RDF>
  </metadata>
  <g
     inkscape:label="Layer 1"
     inkscape:groupmode="layer"
     id="layer1"
     transform="translate(0,-1004.3622)">
    <path
       style="fill:#80ff00;fill-opacity:1;stroke:#000000;stroke-opacity:1"
       d="m 21.860811,1005.9059 a 0.78583953,0.78583953 0 0 0 -0.07555,0.038 0.78583953,0.78583953 0 0 0 -0.07556,0.037 0.78583953,0.78583953 0 0 0 -0.07555,0.037 l -16.3196504,9.4063 a 0.78583953,0.78583953 0 0 0 -0.075554,0.037 0.78583953,0.78583953 0 0 0 -0.037777,0.037 0.78583953,0.78583953 0 0 0 -0.075555,0.076 0.78583953,0.78583953 0 0 0 -0.037777,0.037 0.78583953,0.78583953 0 0 0 -0.037777,0.076 0.78583953,0.78583953 0 0 0 -0.037777,0.076 0.78583953,0.78583953 0 0 0 -0.037777,0.076 0.78583953,0.78583953 0 0 0 -0.037777,0.075 0.78583953,0.78583953 0 0 0 0,0.076 0.78583953,0.78583953 0 0 0 0,0.076 0.78583953,0.78583953 0 0 0 0,0.075 0.78583953,0.78583953 0 0 0 0,0.076 0.78583953,0.78583953 0 0 0 0,0.076 0.78583953,0.78583953 0 0 0 0.037777,0.076 0.78583953,0.78583953 0 0 0 0.037777,0.075 0.78583953,0.78583953 0 0 0 0.037777,0.076 0.78583953,0.78583953 0 0 0 0.037777,0.075 0.78583953,0.78583953 0 0 0 0.037777,0.037 0.78583953,0.78583953 0 0 0 0.075555,0.076 l 13.7130384,11.2198 a 0.78583953,0.78583953 0 0 0 0.07556,0.037 0.78583953,0.78583953 0 0 0 0.03777,0.037 0.78583953,0.78583953 0 0 0 0.07555,0.037 0.78583953,0.78583953 0 0 0 0.07556,0.037 0.78583953,0.78583953 0 0 0 0.07555,0 0.78583953,0.78583953 0 0 0 0.07555,0.037 0.78583953,0.78583953 0 0 0 0.07556,0 0.78583953,0.78583953 0 0 0 0.113335,0 0.78583953,0.78583953 0 0 0 0.07555,-0.037 0.78583953,0.78583953 0 0 0 0.07555,0 0.78583953,0.78583953 0 0 0 0.07556,-0.037 0.78583953,0.78583953 0 0 0 0.03778,-0.037 0.78583953,0.78583953 0 0 0 0.07555,-0.037 0.78583953,0.78583953 0 0 0 0.07556,-0.037 0.78583953,0.78583953 0 0 0 0.03778,-0.075 0.78583953,0.78583953 0 0 0 0.07556,-0.037 0.78583953,0.78583953 0 0 0 0.03778,-0.075 0.78583953,0.78583953 0 0 0 0.03778,-0.075 0.78583953,0.78583953 0 0 0 0.03778,-0.076 0.78583953,0.78583953 0 0 0 0,-0.075 0.78583953,0.78583953 0 0 0 0.03777,-0.075 0.78583953,0.78583953 0 0 0 0,-0.037 l 0.491101,-3.8155 c 1.252057,0.397 2.439894,0.8993 3.551036,1.5111 1.11114,0.6118 2.14462,1.319 3.097711,2.1154 0.953091,0.7967 1.828703,1.693 2.606611,2.6446 0.777907,0.9514 1.454369,1.9835 2.039957,3.0598 0.585587,1.0764 1.059391,2.191 1.435523,3.3623 0.376135,1.1712 0.643771,2.3905 0.793319,3.6265 0.149545,1.2361 0.207507,2.5068 0.113334,3.7777 -0.09418,1.2709 -0.32495,2.5396 -0.679986,3.8155 -0.05705,0.2051 -0.125187,0.4013 -0.188884,0.6044 a 0.78583957,0.78583957 0 0 0 -0.03777,0.075 0.78583957,0.78583957 0 0 0 0,0.076 0.78583957,0.78583957 0 0 0 0,0.075 0.78837421,0.78837421 0 0 0 0,0.037 0.78583957,0.78583957 0 0 0 0,0.037 0.78837421,0.78837421 0 0 0 0,0.037 0.78583957,0.78583957 0 0 0 0,0.037 0.78837421,0.78837421 0 0 0 0,0.037 0.78583957,0.78583957 0 0 0 0,0.037 0.78837421,0.78837421 0 0 0 0,0.075 0.78837421,0.78837421 0 0 0 0,0.076 0.78837421,0.78837421 0 0 0 0.03777,0.075 0.78837421,0.78837421 0 0 0 0,0.075 0.78837421,0.78837421 0 0 0 0.03778,0.076 0.78837421,0.78837421 0 0 0 0.03778,0.075 0.78837421,0.78837421 0 0 0 0.03778,0.075 0.78837421,0.78837421 0 0 0 0.07555,0.037 0.78837421,0.78837421 0 0 0 0.03778,0.075 0.78837421,0.78837421 0 0 0 0.07555,0.038 0.78837421,0.78837421 0 0 0 0.07555,0.037 0.78837421,0.78837421 0 0 0 0.07556,0.037 0.78837421,0.78837421 0 0 0 0.07555,0.037 0.78837421,0.78837421 0 0 0 0.07556,0 0.78837421,0.78837421 0 0 0 0.07555,0.037 0.78837421,0.78837421 0 0 0 0.07555,0 0.78837421,0.78837421 0 0 0 0.07555,0 0.78837421,0.78837421 0 0 0 0.07555,-0.037 0.78837421,0.78837421 0 0 0 0.07555,0 0.78837421,0.78837421 0 0 0 0.07555,-0.037 0.78837421,0.78837421 0 0 0 0.07555,-0.037 0.78837421,0.78837421 0 0 0 0.03778,-0.037 0.78837421,0.78837421 0 0 0 0.07555,-0.038 0.78837421,0.78837421 0 0 0 0.07556,-0.075 0.78837421,0.78837421 0 0 0 0.03778,-0.037 c 1.20866,-1.4762 2.230312,-3.0859 3.022158,-4.7976 0.791847,-1.7119 1.353881,-3.5261 1.699963,-5.4022 0.277867,-1.5063 0.401821,-3.0207 0.37777,-4.4955 -0.02405,-1.4748 -0.188327,-2.8967 -0.491101,-4.3065 -0.302773,-1.41 -0.763893,-2.806 -1.322193,-4.1177 -0.5583,-1.3116 -1.211547,-2.5601 -2.00218,-3.7399 -0.79063,-1.1799 -1.720171,-2.2719 -2.719941,-3.2867 -0.99977,-1.0148 -2.063104,-1.9415 -3.24882,-2.7577 -1.185714,-0.8162 -2.46701,-1.5311 -3.815475,-2.1155 -1.348464,-0.5843 -2.780777,-1.0409 -4.268797,-1.3599 l 0.755539,-5.8933 a 0.78583953,0.78583953 0 0 0 0,-0.076 0.78583953,0.78583953 0 0 0 0,-0.075 0.78583953,0.78583953 0 0 0 0,-0.076 0.78583953,0.78583953 0 0 0 0,-0.076 0.78583953,0.78583953 0 0 0 -0.03778,-0.075 0.78583953,0.78583953 0 0 0 -0.03778,-0.076 0.78583953,0.78583953 0 0 0 -0.03777,-0.076 0.78583953,0.78583953 0 0 0 -0.03778,-0.076 0.78583953,0.78583953 0 0 0 -0.03777,-0.037 0.78583953,0.78583953 0 0 0 -0.07555,-0.076 0.78583953,0.78583953 0 0 0 -0.03778,-0.037 0.78583953,0.78583953 0 0 0 -0.07555,-0.037 0.78583953,0.78583953 0 0 0 -0.07555,-0.038 0.78583953,0.78583953 0 0 0 -0.07555,-0.037 0.78583953,0.78583953 0 0 0 -0.07555,-0.037 0.78583953,0.78583953 0 0 0 -0.07556,0 0.78583953,0.78583953 0 0 0 -0.07555,0 0.78583953,0.78583953 0 0 0 -0.07555,0 0.78583953,0.78583953 0 0 0 -0.03777,0 0.78583953,0.78583953 0 0 0 -0.07555,0 z"
       id="path3791"
       inkscape:connector-curvature="0" />
  </g>
</svg>
